<svg width="640" height="365" xmlns="http://www.w3.org/2000/svg" xmlns:se="http://svg-edit.googlecode.com">
  <style>
    .node {
      stroke: red;
      fill: none;
      stroke: #fff;
      stroke-width: 5;
    }

    .add {
      stroke: #fff;
      stroke-width: 5;
      fill: none;
    }

    .text {
      font-weight: bold;
      fill: #fff;
      stroke-width: 0;
    }

    .arrow {
      fill: #fff;
      stroke-width: 0;
    }

    .line {
      stroke: #fff;
      stroke-width: 5;
    }
  </style>
 <g>
  <title>Dataflow Add</title>
  <ellipse class="node" id="svg_4" ry="65.484951" rx="62.800719" cy="293.515057" cx="64.800718" />
  <ellipse class="node" ry="65.484951" rx="62.800719" id="svg_1" cy="68.484951" cx="64.800718" />
  <ellipse class="node" ry="67.866221" rx="65.08438" id="svg_11" cy="181.595324" cx="572.915625" stroke-linecap="null" stroke-linejoin="null" stroke-dasharray="null" />


  <path class="add" id="svg_5" d="m290.580688,125.062019l59.945953,0l0,0c33.107391,0 59.946381,25.31118 59.946381,56.53344c0,31.223602 -26.838989,56.533157 -59.946381,56.533157l-59.945953,0l0,-113.066597z" stroke-linecap="null" stroke-linejoin="null" stroke-dasharray="null" />

  <line class="line" id="svg_14" y2="292.324422" x2="216.618573" y1="292.324422" x1="129.314186" stroke-linecap="null" stroke-linejoin="null" stroke-dasharray="null" />
  <line class="line" id="svg_15" y2="201.836125" x2="217.65437" y1="201.836125" x1="287.457813" stroke-linecap="null" stroke-linejoin="null" stroke-dasharray="null" />
  <line class="line" id="svg_16" y2="295.301013" x2="216.378817" y1="198.859537" x1="216.378817" stroke-linecap="null" stroke-linejoin="null" stroke-dasharray="null" />
  <line class="line" id="svg_17" y2="162.545154" x2="289.981234" y1="162.545154" x1="216.664277" stroke-linecap="null" stroke-linejoin="null" stroke-dasharray="null" />
  <line class="line" id="svg_18" y2="72.056858" x2="130.018824" y1="72.056858" x1="213.524241" stroke-linecap="null" stroke-linejoin="null" stroke-dasharray="null" />
  <line class="line" id="svg_19" y2="165.521745" x2="215.522444" y1="69.080269" x1="215.522444" stroke-linecap="null" stroke-linejoin="null" stroke-dasharray="null" />

  <polyline class="line" se:connector="svg_5 svg_11" fill="none" stroke-width="5" stroke="#000000" points="412.973 181.595 459.152 181.595 505.331 181.595" id="svg_13"/>


  <path class="arrow" id="svg_27" d="m282.083649,201.836121l-12.391876,-12.934982l8.161102,0l12.391876,12.934982l-12.391876,12.934998l-8.161102,0l12.391876,-12.934998z" stroke-linecap="null" stroke-linejoin="null" stroke-dasharray="null" />

  <path class="arrow" id="svg_26" d="m282.083649,161.763992l-12.391846,-12.934998l8.161072,0l12.391876,12.934998l-12.391876,12.934982l-8.161072,0l12.391846,-12.934982z" stroke-linecap="null" stroke-linejoin="null" stroke-dasharray="null" />

  <path class="arrow" id="svg_28" d="m499.386475,181.595322l-12.391846,-12.934998l8.161133,0l12.391815,12.934998l-12.391815,12.934982l-8.161133,0l12.391846,-12.934982z" stroke-linecap="null" stroke-linejoin="null" stroke-dasharray="null" />


  <text class="text" xml:space="preserve" text-anchor="middle" font-family="Monospace" font-size="24" id="svg_30" y="188" x="344" stroke-linecap="null" stroke-linejoin="null" stroke-dasharray="null" >ADD</text>
 </g>
</svg>