<svg width="388" height="100" xmlns="http://www.w3.org/2000/svg">
 <g>
  <title>Layer 1</title>
  <path id="svg_2" d="m192.483597,52.448029c-37.345016,56.765381 -136.683746,35.104355 -136.683746,35.104355c-64.980392,-19.420334 -53.030891,-61.246815 -53.030891,-61.246815c27.635328,-41.826443 52.283981,-9.709711 52.283981,-9.709711c4.482319,8.962801 -4.482319,8.962801 -4.482319,8.962801c-27.636251,-13.444221 -22.407032,8.215878 -22.407032,8.215878c23.153931,35.104401 79.918404,-15.684889 79.918404,-15.684889c55.270699,-38.091942 85.597801,7.15114 85.597801,7.15114l3.332123,-2.66972c0,0 27.636276,-42.57336 82.906876,-4.481422c0,0 56.76355,50.790154 79.91748,15.684891c0,0 5.230133,-21.66006 -22.406128,-8.21575c0,0 -8.96463,0 -4.48233,-8.96282c0,0 24.648682,-32.115809 52.283081,9.70973c0,0 11.950409,41.826452 -53.029938,61.246778c0,0 -99.339722,21.661057 -136.684692,-35.104321" fill="#F0DB4F"/>
 </g>
</svg>